<svg aria-hidden="true" style="position: absolute; width: 0; height: 0; overflow: hidden;" version="1.1" xmlns="http://www.w3.org/2000/svg" xmlns:xlink="http://www.w3.org/1999/xlink">
<defs>
<symbol id="icon-chevron-left" viewBox="0 0 24 24">
<path d="M15.707 17.293l-5.293-5.293 5.293-5.293c0.391-0.391 0.391-1.024 0-1.414s-1.024-0.391-1.414 0l-6 6c-0.391 0.391-0.391 1.024 0 1.414l6 6c0.391 0.391 1.024 0.391 1.414 0s0.391-1.024 0-1.414z"></path>
</symbol>
<symbol id="icon-chevron-right" viewBox="0 0 24 24">
<path d="M9.707 18.707l6-6c0.391-0.391 0.391-1.024 0-1.414l-6-6c-0.391-0.391-1.024-0.391-1.414 0s-0.391 1.024 0 1.414l5.293 5.293-5.293 5.293c-0.391 0.391-0.391 1.024 0 1.414s1.024 0.391 1.414 0z"></path>
</symbol>
<symbol id="icon-grid" viewBox="0 0 24 24">
<path d="M3 2c-0.552 0-1 0.448-1 1v7c0 0.552 0.448 1 1 1h7c0.552 0 1-0.448 1-1v-7c0-0.552-0.448-1-1-1zM4 4h5v5h-5zM14 2c-0.552 0-1 0.448-1 1v7c0 0.552 0.448 1 1 1h7c0.552 0 1-0.448 1-1v-7c0-0.552-0.448-1-1-1zM15 4h5v5h-5zM14 13c-0.552 0-1 0.448-1 1v7c0 0.552 0.448 1 1 1h7c0.552 0 1-0.448 1-1v-7c0-0.552-0.448-1-1-1zM15 15h5v5h-5zM3 13c-0.552 0-1 0.448-1 1v7c0 0.552 0.448 1 1 1h7c0.552 0 1-0.448 1-1v-7c0-0.552-0.448-1-1-1zM4 15h5v5h-5z"></path>
</symbol>
<symbol id="icon-list" viewBox="0 0 24 24">
<path d="M8 7h13c0.552 0 1-0.448 1-1s-0.448-1-1-1h-13c-0.552 0-1 0.448-1 1s0.448 1 1 1zM8 13h13c0.552 0 1-0.448 1-1s-0.448-1-1-1h-13c-0.552 0-1 0.448-1 1s0.448 1 1 1zM8 19h13c0.552 0 1-0.448 1-1s-0.448-1-1-1h-13c-0.552 0-1 0.448-1 1s0.448 1 1 1zM3 7c0.552 0 1-0.448 1-1s-0.448-1-1-1-1 0.448-1 1 0.448 1 1 1zM3 13c0.552 0 1-0.448 1-1s-0.448-1-1-1-1 0.448-1 1 0.448 1 1 1zM3 19c0.552 0 1-0.448 1-1s-0.448-1-1-1-1 0.448-1 1 0.448 1 1 1z"></path>
</symbol>
<symbol id="icon-monitor" viewBox="0 0 24 24">
<path d="M12 16h-8c-0.276 0-0.525-0.111-0.707-0.293s-0.293-0.431-0.293-0.707v-10c0-0.276 0.111-0.525 0.293-0.707s0.431-0.293 0.707-0.293h16c0.276 0 0.525 0.111 0.707 0.293s0.293 0.431 0.293 0.707v10c0 0.276-0.111 0.525-0.293 0.707s-0.431 0.293-0.707 0.293zM11 18v2h-3c-0.552 0-1 0.448-1 1s0.448 1 1 1h8c0.552 0 1-0.448 1-1s-0.448-1-1-1h-3v-2h7c0.828 0 1.58-0.337 2.121-0.879s0.879-1.293 0.879-2.121v-10c0-0.828-0.337-1.58-0.879-2.121s-1.293-0.879-2.121-0.879h-16c-0.828 0-1.58 0.337-2.121 0.879s-0.879 1.293-0.879 2.121v10c0 0.828 0.337 1.58 0.879 2.121s1.293 0.879 2.121 0.879z"></path>
</symbol>
<symbol id="icon-plus-square" viewBox="0 0 24 24">
<path d="M5 2c-0.828 0-1.58 0.337-2.121 0.879s-0.879 1.293-0.879 2.121v14c0 0.828 0.337 1.58 0.879 2.121s1.293 0.879 2.121 0.879h14c0.828 0 1.58-0.337 2.121-0.879s0.879-1.293 0.879-2.121v-14c0-0.828-0.337-1.58-0.879-2.121s-1.293-0.879-2.121-0.879zM5 4h14c0.276 0 0.525 0.111 0.707 0.293s0.293 0.431 0.293 0.707v14c0 0.276-0.111 0.525-0.293 0.707s-0.431 0.293-0.707 0.293h-14c-0.276 0-0.525-0.111-0.707-0.293s-0.293-0.431-0.293-0.707v-14c0-0.276 0.111-0.525 0.293-0.707s0.431-0.293 0.707-0.293zM8 13h3v3c0 0.552 0.448 1 1 1s1-0.448 1-1v-3h3c0.552 0 1-0.448 1-1s-0.448-1-1-1h-3v-3c0-0.552-0.448-1-1-1s-1 0.448-1 1v3h-3c-0.552 0-1 0.448-1 1s0.448 1 1 1z"></path>
</symbol>
<symbol id="icon-trash-2" viewBox="0 0 24 24">
<path d="M18 7v13c0 0.276-0.111 0.525-0.293 0.707s-0.431 0.293-0.707 0.293h-10c-0.276 0-0.525-0.111-0.707-0.293s-0.293-0.431-0.293-0.707v-13zM17 5v-1c0-0.828-0.337-1.58-0.879-2.121s-1.293-0.879-2.121-0.879h-4c-0.828 0-1.58 0.337-2.121 0.879s-0.879 1.293-0.879 2.121v1h-4c-0.552 0-1 0.448-1 1s0.448 1 1 1h1v13c0 0.828 0.337 1.58 0.879 2.121s1.293 0.879 2.121 0.879h10c0.828 0 1.58-0.337 2.121-0.879s0.879-1.293 0.879-2.121v-13h1c0.552 0 1-0.448 1-1s-0.448-1-1-1zM9 5v-1c0-0.276 0.111-0.525 0.293-0.707s0.431-0.293 0.707-0.293h4c0.276 0 0.525 0.111 0.707 0.293s0.293 0.431 0.293 0.707v1zM9 11v6c0 0.552 0.448 1 1 1s1-0.448 1-1v-6c0-0.552-0.448-1-1-1s-1 0.448-1 1zM13 11v6c0 0.552 0.448 1 1 1s1-0.448 1-1v-6c0-0.552-0.448-1-1-1s-1 0.448-1 1z"></path>
</symbol>
<symbol id="icon-upload" viewBox="0 0 24 24">
<path d="M20 15v4c0 0.276-0.111 0.525-0.293 0.707s-0.431 0.293-0.707 0.293h-14c-0.276 0-0.525-0.111-0.707-0.293s-0.293-0.431-0.293-0.707v-4c0-0.552-0.448-1-1-1s-1 0.448-1 1v4c0 0.828 0.337 1.58 0.879 2.121s1.293 0.879 2.121 0.879h14c0.828 0 1.58-0.337 2.121-0.879s0.879-1.293 0.879-2.121v-4c0-0.552-0.448-1-1-1s-1 0.448-1 1zM11 5.414v9.586c0 0.552 0.448 1 1 1s1-0.448 1-1v-9.586l3.293 3.293c0.391 0.391 1.024 0.391 1.414 0s0.391-1.024 0-1.414l-5-5c-0.092-0.092-0.202-0.166-0.324-0.217-0.245-0.101-0.521-0.101-0.766 0-0.118 0.049-0.228 0.121-0.324 0.217l-5 5c-0.391 0.391-0.391 1.024 0 1.414s1.024 0.391 1.414 0z"></path>
</symbol>
</defs>
</svg>
